<mxfile host="65bd71144e">
    <diagram id="hXoN1m0Zi9nMQUaNymvD" name="Page-1">
        <mxGraphModel dx="1386" dy="779" grid="1" gridSize="10" guides="1" tooltips="1" connect="1" arrows="1" fold="1" page="1" pageScale="1" pageWidth="1169" pageHeight="827" math="0" shadow="0">
            <root>
                <mxCell id="0"/>
                <mxCell id="1" parent="0"/>
                <UserObject label="&lt;table xmlns=&quot;http://www.w3.org/1999/xhtml&quot; cellspacing=&quot;0&quot; cellpadding=&quot;0&quot; dir=&quot;ltr&quot; border=&quot;1&quot; style=&quot;table-layout:fixed;font-size:10pt;font-family:Arial;width:0px;border-collapse:collapse;border:none&quot; data-sheets-root=&quot;1&quot; data-sheets-baot=&quot;1&quot;&gt;&lt;colgroup&gt;&lt;col width=&quot;133&quot;&gt;&lt;col width=&quot;100&quot;&gt;&lt;col width=&quot;34&quot;&gt;&lt;col width=&quot;100&quot;&gt;&lt;col width=&quot;133&quot;&gt;&lt;/colgroup&gt;&lt;tbody&gt;&lt;tr style=&quot;height:32px;&quot;&gt;&lt;td style=&quot;border-top:1px solid #000000;border-right:1px solid #000000;border-bottom:1px solid #000000;border-left:1px solid #000000;overflow:hidden;padding:2px 3px 2px 3px;vertical-align:middle;background-color:#d9ead3;text-align:center;&quot; rowspan=&quot;1&quot; colspan=&quot;2&quot;&gt;下げ圧力&lt;/td&gt;&lt;td style=&quot;border-top:1px solid #000000;border-right:1px solid #000000;border-bottom:1px solid #000000;overflow:hidden;padding:2px 3px 2px 3px;vertical-align:middle;background-color:#ffffff;text-align:center;&quot;&gt;VS&lt;/td&gt;&lt;td style=&quot;border-top:1px solid #000000;border-right:1px solid #000000;border-bottom:1px solid #000000;overflow:hidden;padding:2px 3px 2px 3px;vertical-align:middle;background-color:#f4cccc;text-align:center;&quot; rowspan=&quot;1&quot; colspan=&quot;2&quot;&gt;上げ圧力&lt;/td&gt;&lt;/tr&gt;&lt;tr style=&quot;height:32px;&quot;&gt;&lt;td style=&quot;border-right:1px solid #000000;border-bottom:1px solid #000000;border-left:1px solid #000000;overflow:hidden;padding:2px 3px 2px 3px;vertical-align:middle;background-color:#ffffff;text-align:center;&quot;&gt;レジスタンス&lt;/td&gt;&lt;td style=&quot;border-right:1px solid #000000;border-bottom:1px solid #000000;overflow:hidden;padding:2px 3px 2px 3px;vertical-align:middle;background-color:#ffffff;text-align:center;&quot;&gt;売り指値&lt;/td&gt;&lt;td style=&quot;border-right:1px solid #000000;border-bottom:1px solid #000000;overflow:hidden;padding:2px 3px 2px 3px;vertical-align:middle;background-color:#ffffff;text-align:center;&quot;&gt;VS&lt;/td&gt;&lt;td style=&quot;border-right:1px solid #000000;border-bottom:1px solid #000000;overflow:hidden;padding:2px 3px 2px 3px;vertical-align:middle;background-color:#ffffff;text-align:center;&quot;&gt;買い逆指値&lt;/td&gt;&lt;td style=&quot;border-right:1px solid #000000;border-bottom:1px solid #000000;overflow:hidden;padding:2px 3px 2px 3px;vertical-align:middle;background-color:#ffffff;text-align:center;&quot;&gt;アンチレジスタンス&lt;/td&gt;&lt;/tr&gt;&lt;tr style=&quot;height:21px;&quot;&gt;&lt;td style=&quot;border-right:1px solid #000000;border-bottom:1px solid #000000;border-left:1px solid #000000;overflow:hidden;padding:2px 3px 2px 3px;vertical-align:middle;background-color:#666666;color:#ffffff;text-align:center;&quot; rowspan=&quot;1&quot; colspan=&quot;5&quot;&gt;現在値&lt;/td&gt;&lt;/tr&gt;&lt;tr style=&quot;height:44px;&quot;&gt;&lt;td style=&quot;border-right:1px solid #000000;border-bottom:1px solid #000000;border-left:1px solid #000000;overflow:hidden;padding:2px 3px 2px 3px;vertical-align:middle;background-color:#ffffff;text-align:center;&quot;&gt;アンチサポート&lt;/td&gt;&lt;td style=&quot;border-right:1px solid #000000;border-bottom:1px solid #000000;overflow:hidden;padding:2px 3px 2px 3px;vertical-align:middle;background-color:#ffffff;text-align:center;&quot;&gt;売り逆指値&lt;/td&gt;&lt;td style=&quot;border-right:1px solid #000000;border-bottom:1px solid #000000;overflow:hidden;padding:2px 3px 2px 3px;vertical-align:middle;background-color:#ffffff;text-align:center;&quot;&gt;VS&lt;/td&gt;&lt;td style=&quot;border-right:1px solid #000000;border-bottom:1px solid #000000;overflow:hidden;padding:2px 3px 2px 3px;vertical-align:middle;background-color:#ffffff;text-align:center;&quot;&gt;買い指値&lt;/td&gt;&lt;td style=&quot;border-right:1px solid #000000;border-bottom:1px solid #000000;overflow:hidden;padding:2px 3px 2px 3px;vertical-align:middle;background-color:#ffffff;text-align:center;&quot;&gt;サポート&lt;/td&gt;&lt;/tr&gt;&lt;/tbody&gt;&lt;/table&gt;" link="&lt;table xmlns=&quot;http://www.w3.org/1999/xhtml&quot; cellspacing=&quot;0&quot; cellpadding=&quot;0&quot; dir=&quot;ltr&quot; border=&quot;1&quot; style=&quot;table-layout:fixed;font-size:10pt;font-family:Arial;width:0px;border-collapse:collapse;border:none&quot; data-sheets-root=&quot;1&quot; data-sheets-baot=&quot;1&quot;&gt;&lt;colgroup&gt;&lt;col width=&quot;133&quot;&gt;&lt;col width=&quot;100&quot;&gt;&lt;col width=&quot;34&quot;&gt;&lt;col width=&quot;100&quot;&gt;&lt;col width=&quot;133&quot;&gt;&lt;/colgroup&gt;&lt;tbody&gt;&lt;tr style=&quot;height:32px;&quot;&gt;&lt;td style=&quot;border-top:1px solid #000000;border-right:1px solid #000000;border-bottom:1px solid #000000;border-left:1px solid #000000;overflow:hidden;padding:2px 3px 2px 3px;vertical-align:middle;background-color:#d9ead3;text-align:center;&quot; rowspan=&quot;1&quot; colspan=&quot;2&quot;&gt;下げ圧力&lt;/td&gt;&lt;td style=&quot;border-top:1px solid #000000;border-right:1px solid #000000;border-bottom:1px solid #000000;overflow:hidden;padding:2px 3px 2px 3px;vertical-align:middle;background-color:#ffffff;text-align:center;&quot;&gt;VS&lt;/td&gt;&lt;td style=&quot;border-top:1px solid #000000;border-right:1px solid #000000;border-bottom:1px solid #000000;overflow:hidden;padding:2px 3px 2px 3px;vertical-align:middle;background-color:#f4cccc;text-align:center;&quot; rowspan=&quot;1&quot; colspan=&quot;2&quot;&gt;上げ圧力&lt;/td&gt;&lt;/tr&gt;&lt;tr style=&quot;height:32px;&quot;&gt;&lt;td style=&quot;border-right:1px solid #000000;border-bottom:1px solid #000000;border-left:1px solid #000000;overflow:hidden;padding:2px 3px 2px 3px;vertical-align:middle;background-color:#ffffff;text-align:center;&quot;&gt;レジスタンス&lt;/td&gt;&lt;td style=&quot;border-right:1px solid #000000;border-bottom:1px solid #000000;overflow:hidden;padding:2px 3px 2px 3px;vertical-align:middle;background-color:#ffffff;text-align:center;&quot;&gt;売り指値&lt;/td&gt;&lt;td style=&quot;border-right:1px solid #000000;border-bottom:1px solid #000000;overflow:hidden;padding:2px 3px 2px 3px;vertical-align:middle;background-color:#ffffff;text-align:center;&quot;&gt;VS&lt;/td&gt;&lt;td style=&quot;border-right:1px solid #000000;border-bottom:1px solid #000000;overflow:hidden;padding:2px 3px 2px 3px;vertical-align:middle;background-color:#ffffff;text-align:center;&quot;&gt;買い逆指値&lt;/td&gt;&lt;td style=&quot;border-right:1px solid #000000;border-bottom:1px solid #000000;overflow:hidden;padding:2px 3px 2px 3px;vertical-align:middle;background-color:#ffffff;text-align:center;&quot;&gt;アンチレジスタンス&lt;/td&gt;&lt;/tr&gt;&lt;tr style=&quot;height:21px;&quot;&gt;&lt;td style=&quot;border-right:1px solid #000000;border-bottom:1px solid #000000;border-left:1px solid #000000;overflow:hidden;padding:2px 3px 2px 3px;vertical-align:middle;background-color:#666666;color:#ffffff;text-align:center;&quot; rowspan=&quot;1&quot; colspan=&quot;5&quot;&gt;現在値&lt;/td&gt;&lt;/tr&gt;&lt;tr style=&quot;height:44px;&quot;&gt;&lt;td style=&quot;border-right:1px solid #000000;border-bottom:1px solid #000000;border-left:1px solid #000000;overflow:hidden;padding:2px 3px 2px 3px;vertical-align:middle;background-color:#ffffff;text-align:center;&quot;&gt;アンチサポート&lt;/td&gt;&lt;td style=&quot;border-right:1px solid #000000;border-bottom:1px solid #000000;overflow:hidden;padding:2px 3px 2px 3px;vertical-align:middle;background-color:#ffffff;text-align:center;&quot;&gt;売り逆指値&lt;/td&gt;&lt;td style=&quot;border-right:1px solid #000000;border-bottom:1px solid #000000;overflow:hidden;padding:2px 3px 2px 3px;vertical-align:middle;background-color:#ffffff;text-align:center;&quot;&gt;VS&lt;/td&gt;&lt;td style=&quot;border-right:1px solid #000000;border-bottom:1px solid #000000;overflow:hidden;padding:2px 3px 2px 3px;vertical-align:middle;background-color:#ffffff;text-align:center;&quot;&gt;買い指値&lt;/td&gt;&lt;td style=&quot;border-right:1px solid #000000;border-bottom:1px solid #000000;overflow:hidden;padding:2px 3px 2px 3px;vertical-align:middle;background-color:#ffffff;text-align:center;&quot;&gt;サポート&lt;/td&gt;&lt;/tr&gt;&lt;/tbody&gt;&lt;/table&gt;" id="2">
                    <mxCell style="text;whiteSpace=wrap;html=1;" parent="1" vertex="1">
                        <mxGeometry x="500" y="300" width="500" height="140" as="geometry"/>
                    </mxCell>
                </UserObject>
            </root>
        </mxGraphModel>
    </diagram>
</mxfile>